<?xml version="1.0" encoding="UTF-8" standalone="no"?>
<svg width="80px" height="80px" viewBox="0 0 80 80" version="1.1" xmlns="http://www.w3.org/2000/svg" xmlns:xlink="http://www.w3.org/1999/xlink">
    <!-- Generator: Sketch 3.6.1 (26313) - http://www.bohemiancoding.com/sketch -->
    <title>Slice 1</title>
    <desc>Created with Sketch.</desc>
    <defs></defs>
    <g id="Page-1" stroke="none" stroke-width="1" fill="none" fill-rule="evenodd">
        <g id="GameUp" transform="translate(9.000000, 20.000000)">
            <path d="M39.854389,4.29186313 L22.2845538,4.29186313 C22.2845538,4.29186313 15.1592114,-2.82547656 8.0687849,1.51288175 C0.978358429,5.85124007 0.400820551,30.1982643 0.261156857,33.1564309 C0.121136878,36.11424 6.31621931,39.5116073 10.514681,34.7783976 C14.7131426,30.0455455 19.0352352,25.1581863 31.0776659,25.1581863 C43.1197404,25.1581863 47.4275816,30.049122 51.6256869,34.7823318 C55.8245049,39.5151838 62.0060485,36.1138823 61.8660285,33.1557156 C61.7260085,30.197549 61.1523898,5.85124007 54.0626759,1.51288175 C46.9718931,-2.82547656 39.854389,4.29186313 39.854389,4.29186313 Z" id="Fill-9761" fill="#F9FAFC"></path>
            <ellipse id="Oval-33" fill="#D0CECF" cx="14.2585231" cy="14.2585231" rx="9.29903678" ry="9.29903678"></ellipse>
            <path d="M47.7350555,23.5575598 C52.8707717,23.5575598 57.0340922,19.3942393 57.0340922,14.2585231 C57.0340922,9.12280686 52.8707717,4.95948628 47.7350555,4.95948628 C42.5993393,4.95948628 38.4360187,9.12280686 38.4360187,14.2585231 C38.4360187,19.3942393 42.5993393,23.5575598 47.7350555,23.5575598 Z" id="Oval-33" fill="#D0CECF"></path>
            <rect id="Rectangle-177" fill="#0B0A0A" x="12.3987157" y="8.67910099" width="3.71961471" height="11.1588441"></rect>
            <rect id="Rectangle-177" fill="#0B0A0A" transform="translate(14.258523, 14.258523) rotate(-270.000000) translate(-14.258523, -14.258523) " x="12.3987157" y="8.67910099" width="3.71961471" height="11.1588441"></rect>
            <rect id="Rectangle-177" fill="#0B0A0A" transform="translate(27.897110, 14.258523) rotate(-270.000000) translate(-27.897110, -14.258523) " x="26.037303" y="12.3987157" width="3.71961471" height="3.71961471"></rect>
            <rect id="Rectangle-177" fill="#0B0A0A" transform="translate(34.096468, 14.258523) rotate(-270.000000) translate(-34.096468, -14.258523) " x="32.2366608" y="12.3987157" width="3.71961471" height="3.71961471"></rect>
            <path d="M47.5636824,12.0143555 C46.1941172,12.0143555 45.0839393,10.9043256 45.0839393,9.53432255 C45.0839393,8.16518901 46.1941172,7.05486924 47.5636824,7.05486924 C48.9332477,7.05486924 50.0434256,8.16518901 50.0434256,9.53432255 C50.0434256,10.9043256 48.9332477,12.0143555 47.5636824,12.0143555 Z" id="Fill-9776" fill="#FCDB58"></path>
            <path d="M47.5636824,21.9333281 C46.1941172,21.9333281 45.0839393,20.8232981 45.0839393,19.4532951 C45.0839393,18.0841616 46.1941172,16.9738418 47.5636824,16.9738418 C48.9332477,16.9738418 50.0434256,18.0841616 50.0434256,19.4532951 C50.0434256,20.8232981 48.9332477,21.9333281 47.5636824,21.9333281 Z" id="Fill-9776" fill="#009999"></path>
            <path d="M42.6041961,16.9738418 C41.2346309,16.9738418 40.124453,15.8638119 40.124453,14.4938088 C40.124453,13.1246753 41.2346309,12.0143555 42.6041961,12.0143555 C43.9737614,12.0143555 45.0839393,13.1246753 45.0839393,14.4938088 C45.0839393,15.8638119 43.9737614,16.9738418 42.6041961,16.9738418 Z" id="Fill-9776" fill="#017DB1"></path>
            <path d="M52.5231687,16.9738418 C52.5231687,16.9738418 50.0434256,15.8638119 50.0434256,14.4938088 C50.0434256,13.1246753 51.1536034,12.0143555 52.5231687,12.0143555 C53.8927339,12.0143555 55.0029118,13.1246753 55.0029118,14.4938088 C55.0029118,15.8638119 52.5231687,16.9738418 52.5231687,16.9738418 Z" id="Fill-9776" fill="#CC3D00"></path>
        </g>
    </g>
</svg>